<svg width="33" height="40" viewBox="0 0 33 40" fill="none" xmlns="http://www.w3.org/2000/svg">
<path fill-rule="evenodd" clip-rule="evenodd" d="M27.9926 32.5333C26.795 34.7211 24.285 38.389 20.9174 38.4028C20.5838 38.3604 19.2148 37.8733 18.8086 37.6042C18.0581 37.1073 17.1614 36.8804 16.275 36.9609C15.3883 36.8809 14.4924 37.1076 13.7414 37.6042C13.3352 37.8733 11.9664 38.3604 11.6333 38.4028C8.26571 38.389 5.75571 34.7211 4.5581 32.5333C2.73143 29.1964 1.55119 24.9561 1.55119 21.7309C1.55143 17.2533 3.81476 13.1357 6.93333 11.9397V11.9395C7.56048 11.6987 8.21667 11.5757 8.88429 11.573H8.89619C10.7895 11.573 12.1683 13.434 13.3693 14.0366C15.1974 14.9528 17.3362 14.9635 19.181 14.0364C20.3802 13.4352 21.7681 11.573 23.669 11.573C25.6486 11.573 27.4988 12.6561 28.8781 14.6228C30.2262 16.5447 30.9993 19.1354 30.9993 21.7309C30.9993 24.9561 29.819 29.1964 27.9926 32.5333ZM4.66095 4.91018L7.98429 8.23351C8.28738 8.53661 8.77833 8.53637 9.08143 8.23351C9.38429 7.93065 9.38429 7.43923 9.08143 7.13637L5.75833 3.81327C10.3117 3.98661 13.9626 7.74423 13.9626 12.3392V12.593C12.5181 11.7299 10.7729 9.14637 6.87405 10.3228C5.51262 8.82994 4.73691 6.93423 4.66095 4.91018ZM18.8443 2.01708C19.1474 1.71423 19.6376 1.71375 19.9412 2.01708C20.2436 2.3197 20.2448 2.8097 19.941 3.11375C18.0867 4.96875 17.0655 7.43446 17.0655 10.0564V13.1111C16.5521 13.1954 16.0288 13.1971 15.514 13.1159C15.514 12.1926 15.514 10.9807 15.514 10.0564C15.514 7.0197 16.6969 4.16446 18.8443 2.01708ZM23.669 10.0214C21.2664 10.0214 19.6167 11.958 18.6171 12.5747V10.0564C18.6171 7.84875 19.4769 5.77256 21.0381 4.21089C21.9474 3.30161 21.9476 1.8297 21.0381 0.920178C20.1288 0.0106539 18.6569 0.0104158 17.7474 0.920178C15.9402 2.72684 14.735 4.97518 14.2307 7.42137C12.5029 4.34161 9.20571 2.25518 5.43 2.25518H3.87857C3.87381 2.25518 3.86952 2.25565 3.86476 2.25589C3.43452 2.26327 3.10262 2.61756 3.10286 3.03137V4.58208C3.10286 6.93946 3.90381 9.16756 5.37738 10.9628C3.91595 11.7861 2.65905 13.1176 1.70238 14.868C0.604524 16.8768 0 19.314 0 21.7309C0 25.1971 1.255 29.7299 3.19738 33.278C5.55405 37.5835 8.55667 39.9542 11.6526 39.9542C12.2221 39.9542 14.0205 39.2802 14.5979 38.8978C15.4269 38.3497 16.1574 38.5345 16.3629 38.5111C16.9162 38.4483 17.481 38.5857 17.9521 38.8976C18.5298 39.2802 20.3286 39.9542 20.8983 39.9542C23.9943 39.9542 26.9971 37.5833 29.3536 33.278C31.296 29.7299 32.5512 25.1971 32.5512 21.7309C32.551 18.824 31.6752 15.9085 30.1486 13.7318C28.47 11.339 26.169 10.0214 23.669 10.0214Z" fill="#E8E8E8"/>
</svg>
