<svg width="15" height="20" viewBox="0 0 15 20" fill="none" xmlns="http://www.w3.org/2000/svg">
<path d="M1.71737 16.7146C1.50879 16.7146 1.34015 16.8753 1.34015 17.074V18.3425C1.34015 18.5412 1.50879 18.7019 1.71737 18.7019C1.92595 18.7019 2.09459 18.5412 2.09459 18.3425V17.074C2.09459 16.8753 1.92595 16.7146 1.71737 16.7146Z" fill="#35B266"/>
<path d="M2.1434 7.03172C1.95701 6.94293 1.73068 7.01481 1.63749 7.1924C1.4866 7.4757 1.34015 8.06766 1.34015 8.38479V15.8097C1.34015 16.0085 1.50879 16.1691 1.71737 16.1691C1.92595 16.1691 2.09459 16.0085 2.09459 15.8097V8.38056C2.09459 8.16914 2.20997 7.6998 2.31204 7.51375C2.40524 7.33616 2.32979 7.12052 2.1434 7.03172Z" fill="#35B266"/>
<path fill-rule="evenodd" clip-rule="evenodd" d="M10.0517 0.317135C9.14636 0.317135 8.29873 0.549693 7.57536 0.959841V0.372103C7.57536 0.173372 7.40672 0.0126953 7.19814 0.0126953H2.39193C2.18335 0.0126953 2.01471 0.173372 2.01471 0.372103V1.6406C2.01471 1.83933 2.18335 2.00001 2.39193 2.00001H2.45849V2.82453L0.448138 6.61735C0.199617 7.08246 0.00878906 7.85625 0.00878906 8.38056V18.7653C0.00878906 19.4292 0.576836 19.9704 1.27358 19.9704H8.31648C9.01323 19.9704 9.58127 19.4292 9.58127 18.7653V9.6406C9.7366 9.65329 9.89636 9.66174 10.0561 9.66174C12.7632 9.66174 14.96 7.56872 14.96 4.98944C14.9511 2.41016 12.7588 0.321363 10.0517 0.317135ZM2.76914 0.731511H6.82092V1.28119H2.76914V0.731511ZM3.21293 2.91333C3.21293 2.9683 3.19962 3.02327 3.17299 3.07401L1.93482 5.42073C2.12122 5.49261 2.29873 5.58563 2.45406 5.70826C2.64932 5.84779 2.78246 5.94081 3.08423 5.94081C3.38168 5.94081 3.51098 5.85044 3.70585 5.71423L3.71441 5.70826C3.94962 5.53912 4.24252 5.33193 4.79725 5.33193C4.93926 5.33193 5.05908 5.34462 5.17003 5.36576C5.15672 5.24314 5.15228 5.11629 5.15228 4.98944C5.15228 4.37633 5.27654 3.79282 5.49843 3.26005L5.48848 3.26166C5.4661 3.26529 5.44624 3.26851 5.42299 3.26851H4.16707C3.95849 3.26851 3.78985 3.10783 3.78985 2.9091C3.78985 2.71037 3.95849 2.54969 4.16707 2.54969H5.42299C5.565 2.54969 5.6937 2.6258 5.75583 2.73997C5.90672 2.47781 6.08423 2.22834 6.28394 2.00001H3.21293V2.91333ZM8.8224 18.7653C8.8224 19.0317 8.59163 19.2516 8.31204 19.2516H1.27358C0.993996 19.2516 0.763227 19.0317 0.763227 18.7653V8.38056C0.763227 7.96618 0.927428 7.31079 1.12269 6.94293L1.58423 6.07189C1.74478 6.10497 1.85441 6.1825 1.9878 6.27684L1.99695 6.28331C2.23216 6.45244 2.52506 6.65963 3.0798 6.65963C3.63453 6.65963 3.92743 6.45244 4.16264 6.28331L4.17119 6.27733C4.36607 6.14112 4.49537 6.05075 4.79281 6.05075C5.0369 6.05075 5.17003 6.10995 5.31648 6.21143C5.77358 7.82665 7.11826 9.09515 8.8224 9.51375V18.7653ZM9.58127 8.87527C9.73216 8.89219 9.89193 8.90064 10.0517 8.90064C12.3194 8.90064 14.1567 7.15012 14.1567 4.99367C14.1523 2.83299 12.3194 1.08246 10.0517 1.08246C7.78394 1.08246 5.94666 2.83299 5.94666 4.99367C5.94666 5.29811 5.98216 5.58986 6.04873 5.87316C6.05317 5.87316 6.05317 5.87739 6.05317 5.88162C6.05761 5.89642 6.06093 5.91016 6.06426 5.9239C6.06759 5.93764 6.07092 5.95138 6.07536 5.96618C6.0798 5.97041 6.0798 5.97464 6.0798 5.97887C6.08867 6.00424 6.09755 6.03384 6.10642 6.06344C6.14193 6.18183 6.1863 6.29599 6.23068 6.41016C6.23317 6.41253 6.23427 6.41624 6.23553 6.42053C6.23652 6.42388 6.23761 6.42759 6.23956 6.4313L6.26619 6.49472C6.2684 6.49895 6.27062 6.50424 6.27284 6.50952C6.27506 6.51481 6.27728 6.52009 6.2795 6.52432C6.28394 6.5349 6.28838 6.54441 6.29281 6.55393C6.29725 6.56344 6.30169 6.57295 6.30613 6.58352C6.315 6.5962 6.31944 6.60466 6.32388 6.61735C6.80317 7.61946 7.71293 8.38902 8.82684 8.72305C9.07092 8.79494 9.32388 8.84568 9.58127 8.87527Z" fill="#35B266"/>
<path d="M12.0354 3.09937C11.8934 2.96407 11.6626 2.96407 11.5206 3.09937L10.0473 4.50318L8.57388 3.1036C8.43187 2.9683 8.2011 2.9683 8.05908 3.1036C7.91707 3.23891 7.91707 3.45878 8.05908 3.59409L9.53246 4.99367L8.05908 6.39324C7.91707 6.52855 7.91707 6.74842 8.05908 6.88373C8.2011 7.01904 8.43187 7.01904 8.57388 6.88373L10.0473 5.47992L11.5206 6.88373C11.6626 7.01904 11.8934 7.01904 12.0354 6.88373C12.1774 6.74842 12.1774 6.52855 12.0354 6.39324L10.5665 4.98944L12.0399 3.58563C12.1774 3.45033 12.1774 3.23468 12.0354 3.09937Z" fill="#35B266"/>
</svg>
