<svg width="20" height="18" viewBox="0 0 20 18" fill="none" xmlns="http://www.w3.org/2000/svg">
<path d="M9.4183 2.1068C9.61532 2.1068 9.77807 1.94506 9.77807 1.74928C9.77807 1.55349 9.61532 1.39175 9.4183 1.39175C9.22129 1.39175 9.05853 1.55349 9.05853 1.74928C9.05853 1.94932 9.22129 2.1068 9.4183 2.1068Z" fill="#35B266"/>
<path fill-rule="evenodd" clip-rule="evenodd" d="M18.7776 12.4818C19.0222 12.7198 19.2669 12.9579 19.509 13.1985C20.16 13.8454 20.1643 14.4328 19.5175 15.0712C18.7038 15.8884 17.8814 16.7056 17.0591 17.5143C16.4381 18.1272 15.8556 18.1314 15.2474 17.5185C14.8458 17.1162 14.4556 16.7003 14.0651 16.284L14.0651 16.2839C13.9226 16.132 13.7801 15.9801 13.637 15.8288L13.4871 15.9352C13.4871 16.0285 13.4883 16.1219 13.4894 16.2151V16.2151C13.4921 16.4322 13.4948 16.6487 13.4828 16.8631C13.4486 17.5015 13.016 17.9612 12.3735 17.9697C12.2122 17.9723 12.0508 17.9752 11.8894 17.9782H11.8894H11.8893H11.8893H11.8893H11.8892H11.8892H11.8892H11.8892C10.7564 17.9987 9.62201 18.0192 8.49745 17.9484C8.05737 17.9213 7.635 17.9329 7.20135 17.9448L7.07122 17.9484C5.27615 18.0002 3.48107 17.9877 1.68599 17.9751C1.41668 17.9732 1.14736 17.9713 0.878044 17.9697C0.342673 17.9654 0.0257326 17.6292 0.0171666 17.0971C0.0086007 16.5226 0.0086007 15.9437 0.0171666 15.3691C0.0257326 14.7945 0.351239 14.4796 0.942289 14.4668C1.17388 14.464 1.40547 14.4649 1.65957 14.4658H1.6597H1.66006H1.66043H1.6608C1.79636 14.4663 1.93833 14.4668 2.09013 14.4668V13.3943C2.09441 12.2791 2.43276 11.9301 3.53777 11.9046C3.59372 11.9046 3.64785 11.8991 3.74432 11.8894L3.74441 11.8894C3.79561 11.8843 3.85873 11.8779 3.94037 11.8705L3.61374 11.5555L3.6137 11.5555L3.61351 11.5553C2.99731 10.9614 2.43102 10.4155 1.88026 9.85735C1.70466 9.68284 1.52906 9.4828 1.43483 9.26148C1.23353 8.78904 1.37915 8.37193 1.73892 8.01441C2.23769 7.52131 2.73492 7.02514 3.23153 6.52959L3.23165 6.52948C3.5623 6.19953 3.89267 5.86986 4.22305 5.54155C4.89547 4.87759 5.40515 4.87759 6.10755 5.51602C6.1374 5.5432 6.17013 5.56751 6.21245 5.59896L6.21245 5.59896L6.21247 5.59897L6.21252 5.599L6.21258 5.59905C6.24312 5.62174 6.27865 5.64814 6.3217 5.68201C6.32531 5.60846 6.33045 5.54322 6.33518 5.48312L6.33518 5.48307L6.33518 5.48304L6.33518 5.48301C6.34167 5.40056 6.3474 5.32776 6.3474 5.25639C6.3474 4.98186 6.34624 4.70734 6.34509 4.43281C6.34239 3.79225 6.33969 3.1517 6.35168 2.51114C6.36453 1.79609 6.9513 1.31089 7.61944 1.36196C7.62446 1.36196 7.62801 1.36342 7.63095 1.36463C7.63303 1.36549 7.6348 1.36622 7.63658 1.36622C7.80361 1.37899 7.94495 1.50667 7.97493 1.67266C8.00919 1.87271 7.87214 2.06849 7.67084 2.10254C7.65371 2.11105 7.63658 2.11957 7.61944 2.11957C7.21684 2.14936 7.1269 2.35366 7.13119 2.70267C7.13975 3.83907 7.14403 4.97548 7.13119 6.11189C7.1269 6.51622 7.28537 6.66094 7.68797 6.65668C8.71589 6.64391 9.74808 6.64391 10.7803 6.65242C10.5147 6.06507 10.3648 5.40961 10.3648 4.72436C10.3648 3.7582 10.6604 2.86014 11.1657 2.11957H11.1615C10.9773 2.08977 10.8445 1.93229 10.8445 1.74928C10.8445 1.54498 11.0158 1.37899 11.2214 1.37899H11.2257C11.4013 1.35345 11.5683 1.37473 11.7225 1.43432C12.5791 0.566051 13.7741 0.0255127 15.0975 0.0255127C17.7101 0.0297689 19.8259 2.13233 19.8302 4.72862C19.8302 7.3249 17.7101 9.43172 15.0975 9.43172H15.0804V10.798C15.0999 10.7997 15.1188 10.8044 15.1347 10.8084C15.1572 10.814 15.1739 10.8182 15.1789 10.8107C15.9327 10.0446 16.6608 10.3128 17.2133 10.9086C17.7173 11.4503 18.2474 11.966 18.7775 12.4817L18.7775 12.4818L18.7776 12.4818ZM19.0593 4.72436C19.055 2.54944 17.2861 0.787373 15.0975 0.787373C12.9089 0.787373 11.1358 2.54944 11.14 4.71159C11.14 5.35428 11.2942 5.95866 11.5683 6.49494C11.5898 6.52899 11.6069 6.56304 11.624 6.59709C11.6283 6.60348 11.6315 6.60986 11.6347 6.61625C11.6379 6.62263 11.6412 6.62901 11.6454 6.6354C11.6507 6.64462 11.6556 6.65344 11.6604 6.66197C11.6709 6.681 11.6807 6.69864 11.6926 6.71627C11.6968 6.72903 11.7011 6.7418 11.7097 6.75032L11.7739 6.85246L11.7754 6.85525L11.7789 6.86144L11.7825 6.86735L11.7825 6.86736L11.7867 6.8744C11.7884 6.87723 11.7899 6.8799 11.7911 6.88226C11.8082 6.91205 11.8253 6.93759 11.8467 6.96738C11.8553 6.97164 11.8596 6.98015 11.8639 6.98866C11.8853 7.02269 11.9109 7.05671 11.9366 7.09074L11.9366 7.09074L11.9366 7.09075L11.9366 7.09076L11.9367 7.09077L11.9367 7.09078L11.9367 7.09079L11.9367 7.0908L11.9367 7.0908L11.9367 7.09081C11.9388 7.09507 11.942 7.09826 11.9452 7.10145C11.9485 7.10464 11.9517 7.10784 11.9538 7.11209L11.9538 7.11211C11.9752 7.1419 11.9966 7.17168 12.0223 7.20147L12.0352 7.21424L12.078 7.26317L12.1208 7.31213C12.1251 7.32065 12.1294 7.3249 12.1337 7.32916C12.1487 7.34405 12.1626 7.36001 12.1765 7.37597L12.1765 7.37598C12.1904 7.39194 12.2044 7.4079 12.2194 7.4228C12.7633 7.99738 13.4786 8.41024 14.2838 8.57623C14.545 8.63156 14.8106 8.66135 15.0847 8.66135H15.0975C17.2861 8.66135 19.0593 6.89928 19.0593 4.72436ZM8.96858 7.46961V8.38044L8.10342 7.46961H8.96858ZM2.35995 8.4911C2.06871 8.77201 2.09441 8.99759 2.37708 9.26999C3.19513 10.0616 4.00033 10.8661 4.80125 11.679C5.06679 11.9514 5.28522 11.9557 5.55077 11.6875C6.3731 10.8576 7.204 10.0318 8.03918 9.21466C8.27902 8.98057 8.29615 8.78478 8.04774 8.54218C7.56316 8.07035 7.08417 7.59297 6.60518 7.11558C6.24593 6.75753 5.88668 6.39949 5.52507 6.04379C5.46823 5.9873 5.40112 5.94101 5.32698 5.88988L5.32698 5.88987C5.28382 5.8601 5.23828 5.82869 5.191 5.79267C5.14556 5.82428 5.10119 5.85163 5.05884 5.87774L5.05878 5.87777L5.05877 5.87778L5.05876 5.87778C4.98139 5.92547 4.91076 5.96901 4.85264 6.02676C4.50647 6.36722 4.16179 6.7099 3.81673 7.05295L3.81667 7.05301C3.33352 7.53334 2.84965 8.01439 2.35995 8.4911ZM2.71544 17.178H0.839498V15.2883H2.71972L2.71544 17.178ZM6.99841 17.1908C7.28109 17.1908 7.39245 17.012 7.39245 16.7567C7.39673 15.5439 7.39673 14.3354 7.39673 13.1184V13.1176C7.39245 12.8367 7.25539 12.6835 6.95558 12.6835H3.29792C3.02381 12.6835 2.88248 12.8154 2.87819 13.0878C2.87712 13.1851 2.87523 13.2821 2.87335 13.379C2.86773 13.6676 2.86216 13.9544 2.87819 14.2412C2.89532 14.3647 2.95957 14.4711 3.06236 14.5434C3.405 14.752 3.5292 15.0499 3.52064 15.4372C3.51155 15.8345 3.51317 16.2296 3.5149 16.6511L3.5149 16.6513C3.51562 16.8259 3.51636 17.0051 3.51636 17.1908C3.92048 17.1908 4.31828 17.1913 4.71172 17.1917C5.48582 17.1927 6.24306 17.1936 6.99841 17.1908ZM7.79076 12.0152C7.63453 12.0136 7.55723 11.9844 7.46746 11.9504C7.32342 11.8959 7.14728 11.8293 6.56155 11.845L8.94717 9.57218V11.828C8.43501 11.8178 8.2597 11.8898 8.11912 11.9475C8.02458 11.9863 7.94576 12.0187 7.79076 12.0152ZM8.73302 17.2036C9.87657 17.1865 11.0201 17.1865 12.1637 17.2036C12.5791 17.2078 12.7205 17.0291 12.7076 16.6417C12.6956 16.2516 12.6983 15.8593 12.701 15.4664V15.4663V15.4663C12.7022 15.2978 12.7033 15.1291 12.7033 14.9605C12.7033 14.7866 12.7022 14.6131 12.701 14.4399V14.4399V14.4398C12.6983 14.0364 12.6956 13.6345 12.7076 13.2325C12.7162 12.8367 12.562 12.675 12.1551 12.6792C11.0116 12.6962 9.86801 12.6962 8.72445 12.6792C8.31329 12.675 8.17623 12.858 8.18051 13.241C8.18908 14.3774 8.18908 15.5138 8.18051 16.6502C8.17623 17.0418 8.32185 17.2078 8.73302 17.2036ZM10.2278 11.9088C9.88514 11.9131 9.75237 11.7556 9.75237 11.4236C9.76093 10.2617 9.76093 9.09548 9.75237 7.93354C9.74808 7.58028 9.88942 7.41854 10.2535 7.42705C10.579 7.43556 10.9045 7.43556 11.2257 7.43131C11.9324 8.42726 13.0203 9.13805 14.2795 9.35511C14.2795 10.0531 14.2795 10.7511 14.2838 11.4449C14.2838 11.7556 14.151 11.9046 13.8298 11.9046C13.5301 11.9046 13.2305 11.9043 12.9308 11.904H12.9306H12.9304C12.0307 11.9032 11.1305 11.9025 10.2278 11.9088ZM16.4681 17.0078C17.299 16.1693 18.1384 15.3308 18.9865 14.5051C19.2648 14.237 19.2391 14.0199 18.9693 13.756C18.1513 12.9644 17.3461 12.16 16.5452 11.347C16.2668 11.0619 16.0398 11.0533 15.7614 11.3428C15.1446 11.9812 14.515 12.6069 13.8726 13.2197C13.6028 13.4794 13.3886 13.739 13.4186 14.1646C13.4426 14.2347 13.4607 14.3102 13.4789 14.3856C13.5192 14.5529 13.5594 14.7201 13.6627 14.8286C14.123 15.3166 14.5997 15.7864 15.0762 16.2558C15.3269 16.5029 15.5775 16.7498 15.8256 16.9993C16.0483 17.2206 16.2368 17.2376 16.4681 17.0078Z" fill="#35B266"/>
<path d="M14.6007 4.72437L13.1787 6.13317C13.0417 6.26937 13.0417 6.49069 13.1787 6.62689C13.3158 6.76309 13.5385 6.76309 13.6756 6.62689L15.0975 5.21383L16.5195 6.62689C16.6565 6.76309 16.8792 6.76309 17.0163 6.62689C17.1533 6.49069 17.1533 6.26937 17.0163 6.13317L15.5943 4.72437L17.0163 3.31131C17.1533 3.17511 17.1533 2.95379 17.0163 2.81759C16.8792 2.68139 16.6565 2.68139 16.5195 2.81759L15.0975 4.23065L13.6756 2.82184C13.5385 2.68565 13.3158 2.68565 13.1787 2.82184C13.0417 2.95804 13.0417 3.17937 13.1787 3.31556L14.6007 4.72437Z" fill="#35B266"/>
</svg>
