<svg width="20" height="20" viewBox="0 0 20 20" fill="none" xmlns="http://www.w3.org/2000/svg">
<path d="M14.8917 18.1911C14.7389 18.344 14.7389 18.5903 14.8917 18.7431C15.0446 18.896 15.2909 18.896 15.4438 18.7431C15.5966 18.5903 15.5966 18.344 15.4438 18.1954C15.2909 18.0425 15.0446 18.0425 14.8917 18.1911Z" fill="#35B266"/>
<path d="M15.9915 19.2909C15.9915 19.2952 15.9915 19.2952 15.9915 19.2909C15.8387 19.4438 15.8387 19.6901 15.9915 19.8429C16.1444 19.9915 16.3864 19.9915 16.5393 19.8429C16.6922 19.6901 16.6922 19.4438 16.5393 19.2909C16.3907 19.1423 16.1444 19.1423 15.9915 19.2909Z" fill="#35B266"/>
<path d="M17.0913 16.5393C16.9385 16.3865 16.6922 16.3907 16.5436 16.5393C16.3907 16.6922 16.3907 16.9385 16.5436 17.0913C16.6964 17.2442 16.9427 17.2442 17.0956 17.0913C17.2485 16.9385 17.2442 16.6922 17.0913 16.5393C17.0913 16.5393 17.0913 16.5436 17.0913 16.5393Z" fill="#35B266"/>
<path d="M18.4671 17.9194C18.3143 17.7665 18.068 17.7665 17.9151 17.9194C17.7623 18.0722 17.7623 18.3185 17.9151 18.4671C18.068 18.62 18.3143 18.62 18.4671 18.4671C18.62 18.3185 18.62 18.0722 18.4671 17.9194Z" fill="#35B266"/>
<path d="M19.8472 19.2952C19.6943 19.1423 19.448 19.1423 19.2952 19.2952C19.1423 19.448 19.1423 19.6943 19.2952 19.8472C19.448 20 19.6943 19.9958 19.8472 19.8472C19.9958 19.6901 19.9958 19.448 19.8472 19.2952Z" fill="#35B266"/>
<path fill-rule="evenodd" clip-rule="evenodd" d="M15.7368 10.5436L16.9427 10.947C16.9979 10.964 17.0531 10.9979 17.0998 11.0404C17.6391 11.5797 17.8047 12.4119 17.5627 13.3801C17.3376 14.2803 16.7856 15.206 16 15.9916C14.6879 17.3037 12.361 18.378 11.0616 17.1041C11.0149 17.0616 10.9767 17.0064 10.9555 16.9427L10.5521 15.7368C9.93635 15.9194 9.28667 15.5669 9.10408 14.9512C9.04463 14.7559 9.04038 14.5478 9.08709 14.3482L0.832316 8.86204C0.377964 8.58179 0.101956 8.1699 0.0467538 7.68157C-0.118851 6.26756 1.52021 4.42467 2.97244 2.97244C4.42467 1.52021 6.26756 -0.118851 7.69007 0.0467538C8.17839 0.101956 8.58603 0.373718 8.87053 0.832316L10.6115 3.45652C11.24 1.60939 12.9894 0.276053 15.0531 0.276053C17.6434 0.280299 19.741 2.37796 19.7453 4.9682C19.7453 7.36735 17.9491 9.34187 15.6264 9.62637C15.6816 9.71979 15.7283 9.82595 15.7538 9.9406C15.8005 10.1402 15.7962 10.3482 15.7368 10.5436ZM18.9809 4.9682C18.9767 2.79835 17.223 1.04038 15.0531 1.04038C12.8833 1.04038 11.1253 2.79835 11.1253 4.9682C11.1253 5.92786 11.4693 6.80684 12.0425 7.49474C12.0807 7.54141 12.1231 7.58808 12.1655 7.63474L12.1656 7.63476L12.1656 7.63478L12.1656 7.6348L12.1656 7.63481L12.1656 7.63483L12.1656 7.63485L12.1656 7.63486L12.1699 7.63911C12.2124 7.68581 12.2548 7.72827 12.3015 7.77498L12.3015 7.77499C12.3949 7.86416 12.4926 7.95334 12.5945 8.03401L12.6115 8.04723C12.6829 8.10281 12.7579 8.16123 12.8366 8.21236C13.2315 8.47987 13.6773 8.6837 14.1572 8.7941C14.4459 8.86204 14.7431 8.89601 15.0531 8.89601C17.223 8.89601 18.9809 7.13805 18.9809 4.9682ZM1.26119 8.21236L1.24845 8.20387C0.985183 8.04251 0.849302 7.84718 0.819578 7.58816C0.67945 6.36947 2.81958 4.22934 3.52446 3.52446C4.22934 2.81958 6.36947 0.67945 7.5924 0.819578C7.85142 0.849302 8.04675 0.985183 8.20811 1.24845C8.20811 1.2527 8.43317 1.58816 8.43317 1.58816L1.58816 8.42892L1.26119 8.21236ZM8.87053 2.25058L2.25058 8.87053L7.29941 12.2251L11.499 8.02552C10.7941 7.20599 10.3652 6.13593 10.3652 4.9682C10.3652 4.78561 10.3737 4.60726 10.3949 4.42892C10.3355 4.3992 10.2803 4.35673 10.2378 4.29728C10.2357 4.29516 10.2336 4.29198 10.2315 4.28879C10.2293 4.28561 10.2272 4.28242 10.2251 4.2803L8.87053 2.25058ZM7.96183 12.6667L12.051 8.57754C12.5181 8.9682 13.0616 9.26968 13.6603 9.45227L13.6901 9.49474L9.49898 13.6858L7.96183 12.6667ZM9.9406 14.8918C10.0935 15.0446 10.3397 15.0446 10.4926 14.8918L14.896 10.4884C15.0489 10.3355 15.0489 10.0892 14.896 9.93635C14.7431 9.78348 14.4969 9.78348 14.344 9.93635L9.9406 14.3397C9.78773 14.4926 9.78773 14.7389 9.9406 14.8918ZM11.2102 15.2697L15.2739 11.2102L16.0977 11.4862L11.4862 16.0977L11.2102 15.2697ZM11.9194 16.7686C12.7771 17.1508 14.2676 16.6158 15.4438 15.4438C16.6158 14.2676 17.1465 12.7729 16.7644 11.9194L11.9194 16.7686Z" fill="#35B266"/>
<path d="M14.5606 4.9682L13.1508 6.37373C13.0149 6.50961 13.0149 6.73041 13.1508 6.86629C13.2867 7.00218 13.5075 7.00218 13.6434 6.86629L15.0531 5.45653L16.4629 6.86629C16.5988 7.00218 16.8196 7.00218 16.9555 6.86629C17.0914 6.73041 17.0914 6.50961 16.9555 6.37373L15.5457 4.9682L16.9555 3.55844C17.0914 3.42256 17.0914 3.20175 16.9555 3.06587C16.8196 2.92999 16.5988 2.92999 16.4629 3.06587L15.0531 4.47564L13.6434 3.07012C13.5075 2.93423 13.2867 2.93423 13.1508 3.07012C13.0149 3.206 13.0149 3.4268 13.1508 3.56268L14.5606 4.9682Z" fill="#35B266"/>
</svg>
