<svg width="20" height="20" viewBox="0 0 20 20" fill="none" xmlns="http://www.w3.org/2000/svg">
<path fill-rule="evenodd" clip-rule="evenodd" d="M16.7209 9.29707C18.6012 8.66837 19.9589 6.88561 19.9589 4.77988C19.9546 2.15311 17.8388 0.0258516 15.2262 0.0215454C13.1361 0.0215454 11.3629 1.38661 10.7376 3.27702L9.52125 2.05407L9.41417 1.94641C8.5533 1.08087 8.01792 0.585656 6.99858 0.413408C6.75445 0.370347 6.51888 0.538288 6.47605 0.783741C6.43322 1.02919 6.60026 1.26603 6.84867 1.3091C7.51341 1.42049 7.84747 1.72795 8.39918 2.23572L8.40767 2.24354L8.44194 2.27799L6.41609 4.31481C5.88929 4.84448 5.88929 5.70141 6.41609 6.23107C6.93433 6.75212 7.80377 6.75212 8.32201 6.23107L10.3607 4.18132L10.5192 4.34065C10.5063 4.48706 10.4978 4.63347 10.4978 4.78419C10.4978 5.57653 10.6905 6.3258 11.0331 6.98034L10.0481 7.96646C9.52125 8.49182 9.52125 9.34875 10.0438 9.8741C10.2965 10.1325 10.6434 10.2746 11.0032 10.2746C11.3586 10.2789 11.7013 10.1368 11.954 9.88271L12.9048 8.92674C13.5901 9.3186 14.3867 9.53822 15.2305 9.53822C15.3761 9.53822 15.5217 9.52961 15.6673 9.51669L15.7187 9.56836L13.68 11.6181C13.1532 12.1478 13.1532 13.0047 13.68 13.5344C14.2111 14.0554 15.0548 14.0554 15.5859 13.5344L16.9308 12.1822L17.6118 11.4975C18.327 12.3415 18.6654 13.276 18.6268 14.2793C18.5883 15.1836 18.2499 16.1568 17.6203 17.1645L16.9993 18.0472C16.7766 18.3315 16.5368 18.6114 16.2841 18.8783C16.1813 18.986 16.0356 19.0506 15.8857 19.0506C15.7358 19.0549 15.5859 18.9946 15.4789 18.887L1.87614 5.21481L1.08807 4.42247C0.980999 4.31481 0.92532 4.1641 0.92532 4.01338C0.92532 3.86266 0.989565 3.71625 1.09664 3.61291C3.05824 1.75263 4.66864 1.34785 5.45671 1.27465C5.70512 1.26173 5.89785 1.05072 5.88929 0.800965C5.87644 0.551206 5.66657 0.357428 5.41816 0.36604C5.40531 0.36604 5.38818 0.36604 5.37533 0.370347C3.27239 0.568431 1.40501 2.0756 0.479891 2.95406C-0.106876 3.52248 -0.124008 4.46553 0.441344 5.05548L0.44991 5.06409L12.8662 17.5477L14.8364 19.5286C15.1148 19.8042 15.4874 19.9549 15.8729 19.9549H15.8943C16.2883 19.9506 16.6652 19.7869 16.9351 19.5027C17.2049 19.2142 17.4662 18.9128 17.706 18.6027L18.3742 17.6597L18.3784 17.6554C19.098 16.5056 19.4834 15.386 19.5263 14.3181C19.582 12.9143 19.0466 11.6396 17.9416 10.5243L16.7209 9.29707ZM7.67957 5.58945C7.50825 5.76169 7.22557 5.76169 7.05425 5.58945C6.88294 5.4172 6.88294 5.13299 7.05425 4.96074L9.09295 2.911L9.71826 3.5397L7.67957 5.58945ZM10.6862 9.24109C10.8575 9.41334 11.1359 9.41334 11.3115 9.24109L12.151 8.40139C11.9283 8.20761 11.7184 7.9923 11.5342 7.75976L10.6862 8.61239C10.5149 8.78464 10.5149 9.06884 10.6862 9.24109ZM13.4701 8.35402C13.1918 8.21622 12.9305 8.04397 12.6949 7.84589C12.4636 7.65211 12.2538 7.43249 12.0739 7.19565C12.0653 7.18274 12.0568 7.17089 12.0482 7.15905C12.0396 7.14721 12.0311 7.13537 12.0225 7.12245C12.0204 7.1203 12.0182 7.11706 12.0161 7.11384C12.0139 7.11061 12.0118 7.10738 12.0097 7.10522C12.0034 7.09575 11.9965 7.08628 11.9895 7.0766C11.9774 7.05986 11.9648 7.0425 11.954 7.02341C11.9523 7.02176 11.9513 7.02012 11.9505 7.01871C11.9491 7.01644 11.9481 7.01479 11.9454 7.01479C11.9347 6.99973 11.9251 6.98466 11.9154 6.96959L11.9154 6.96958L11.9154 6.96957C11.9058 6.9545 11.8962 6.93943 11.8854 6.92436C11.8833 6.92006 11.8801 6.91575 11.8769 6.91145C11.8737 6.90714 11.8705 6.90283 11.8683 6.89853L11.8298 6.83393C11.8212 6.82101 11.8126 6.8081 11.8084 6.79518C11.8041 6.78656 11.7987 6.77795 11.7934 6.76934C11.788 6.76073 11.7827 6.75212 11.7784 6.7435C11.7741 6.73489 11.7698 6.72736 11.7655 6.71982C11.7612 6.71228 11.757 6.70475 11.7527 6.69614C11.7484 6.68752 11.7441 6.67999 11.7398 6.67245C11.7355 6.66492 11.7313 6.65738 11.727 6.64877L11.7013 6.59709C11.6991 6.59063 11.6959 6.58525 11.6927 6.57987C11.6895 6.57449 11.6863 6.5691 11.6841 6.56264C11.6714 6.53965 11.6602 6.51514 11.6488 6.49001L11.6488 6.49C11.6409 6.47278 11.6329 6.45527 11.6242 6.43776L11.6208 6.4316C11.6179 6.42654 11.6156 6.42254 11.6156 6.41623C11.4058 5.94686 11.2815 5.43012 11.2687 4.88323V4.77988C11.2687 2.57942 13.0419 0.796659 15.2305 0.796659C17.4191 0.796659 19.1879 2.57942 19.1922 4.77988C19.1922 6.7392 17.7831 8.36694 15.9329 8.69851H15.9286C15.8986 8.70282 15.8686 8.70712 15.8386 8.71574H15.8258C15.8108 8.71789 15.7969 8.72004 15.7829 8.7222C15.769 8.72435 15.7551 8.7265 15.7401 8.72866H15.723C15.6973 8.73296 15.6673 8.73727 15.6416 8.73727H15.6202C15.6074 8.73942 15.5934 8.7405 15.5795 8.74157C15.5656 8.74265 15.5517 8.74373 15.5388 8.74588H15.5131C15.5003 8.74588 15.4874 8.74696 15.4746 8.74803C15.4617 8.74911 15.4489 8.75019 15.436 8.75019H15.4061C15.3932 8.75019 15.3814 8.75126 15.3696 8.75234C15.3579 8.75342 15.3461 8.75449 15.3332 8.75449H15.2305C15.1191 8.75449 15.012 8.75019 14.9049 8.74157C14.391 8.71143 13.907 8.56933 13.4701 8.35402ZM14.3182 12.8927C14.4895 13.065 14.7679 13.065 14.9435 12.8927L16.9822 10.843L16.3569 10.2143L14.3182 12.264C14.1469 12.4363 14.1469 12.7205 14.3182 12.8927Z" fill="#35B266"/>
<path d="M16.6481 6.70475C16.7852 6.84254 17.0079 6.84254 17.1449 6.70475C17.282 6.56695 17.282 6.34303 17.1449 6.20523L15.723 4.77988L17.1449 3.35023C17.282 3.21243 17.282 2.98851 17.1449 2.85071C17.0079 2.71291 16.7852 2.71291 16.6481 2.85071L15.2262 4.28036L13.8042 2.85501C13.6672 2.71722 13.4444 2.71722 13.3074 2.85501C13.1703 2.99281 13.1703 3.21673 13.3074 3.35453L14.7293 4.77988L13.3074 6.20523C13.1703 6.34303 13.1703 6.56695 13.3074 6.70475C13.4444 6.84254 13.6672 6.84254 13.8042 6.70475L15.2262 5.27509L16.6481 6.70475Z" fill="#35B266"/>
</svg>
